<svg xmlns:dc="http://purl.org/dc/elements/1.1/" xmlns:cc="http://creativecommons.org/ns#" xmlns:rdf="http://www.w3.org/1999/02/22-rdf-syntax-ns#" xmlns:svg="http://www.w3.org/2000/svg" xmlns="http://www.w3.org/2000/svg" xmlns:sodipodi="http://sodipodi.sourceforge.net/DTD/sodipodi-0.dtd" xmlns:inkscape="http://www.inkscape.org/namespaces/inkscape" version="1.1" x="0px" y="0px" viewBox="0 0 100 125"><g transform="translate(0,-952.36218)"><path style="font-size:medium;font-style:normal;font-variant:normal;font-weight:normal;font-stretch:normal;text-indent:0;text-align:start;text-decoration:none;line-height:normal;letter-spacing:normal;word-spacing:normal;text-transform:none;direction:ltr;block-progression:tb;writing-mode:lr-tb;text-anchor:start;baseline-shift:baseline;opacity:1;color:#000000;fill:#000000;fill-opacity:1;stroke:none;stroke-width:6;marker:none;visibility:visible;display:inline;overflow:visible;enable-background:accumulate;font-family:Sans;-inkscape-font-specification:Sans" d="M 16.6875,5 C 15.662643,5.1044233 14.714112,5.7766886 14.276075,6.7090829 13.838037,7.6414773 13.926118,8.8007411 14.5,9.65625 18.85118,16.10269 20,21.74349 20,27 20,33.40486 17.914543,39.44148 15.65625,46.15625 13.397957,52.871 11,60.2551 11,69 c 0,8.5725 0.725813,16.10145 6.5,24.65625 0.544106,0.821646 1.514529,1.343248 2.5,1.34375 l 51,0 c 1.087286,0.0069 2.154732,-0.628944 2.666406,-1.588333 C 74.17808,92.452277 74.111463,91.211584 73.5,90.3125 68.461534,82.8477 68,77.2909 68,69 c 0,-3.359847 0.423864,-6.743708 1.0625,-9.84375 2.166769,-0.539542 4.31702,-1.23372 6.375,-2.125 C 82.727224,53.87425 89,47.6732 89,38.125 L 89,25 c 0.01318,-1.703893 -1.684403,-3.212852 -3.375,-3 -0.658596,0.08712 -1.285148,0.400393 -1.75,0.875 l -6.96875,6.96875 C 76.978285,28.911945 77,27.958053 77,27 77,20.82005 75.508598,13.73294 70.5,6.3125 69.948768,5.5023129 68.979908,4.9936616 68,5 68,5 16.791572,4.9945727 16.6875,5 z m 5.46875,6 44.125,0 C 69.902203,16.87619 71,22.12043 71,27 c 0,3.486614 -0.603037,6.834983 -1.53125,10.28125 L 35.8125,70.875 c -1.231466,1.075302 -1.307704,3.21339 -0.155954,4.373672 1.151751,1.160282 3.290343,1.099825 4.374704,-0.123672 L 54.25,60.90625 c 2.614701,-0.03932 5.516533,-0.21123 8.5,-0.59375 C 62.297131,63.094069 62,66.021896 62,69 c 0,6.9757 0.64399,13.2859 3.9375,20 L 21.75,89 C 17.542171,82.2016 17,76.7773 17,69 17,61.3532 19.102043,54.75915 21.34375,48.09375 23.585457,41.42825 26,34.68259 26,27 26,22.13594 24.995304,16.7058 22.15625,11 z M 83,32.25 l 0,5.875 c 0,7.09624 -3.924138,10.80205 -9.9375,13.40625 -3.708678,1.6062 -8.034869,2.3909 -12.28125,2.875 z" transform="translate(0,952.36218)"/></g><text x="0" y="115" fill="#000000" font-size="5px" font-weight="bold" font-family="'Helvetica Neue', Helvetica, Arial-Unicode, Arial, Sans-serif"></text><text x="0" y="120" fill="#000000" font-size="5px" font-weight="bold" font-family="'Helvetica Neue', Helvetica, Arial-Unicode, Arial, Sans-serif"></text></svg>