<svg xmlns="http://www.w3.org/2000/svg" viewBox="0 0 64 80" x="0px" y="0px"><g><path d="M47.189,55.352l3.718,1.487A16.148,16.148,0,0,0,56.932,58H61a1,1,0,0,0,1-1V22a1,1,0,0,0-2,0V56H56.932a14.164,14.164,0,0,1-5.283-1.017L47.932,53.5A16.174,16.174,0,0,0,33,55V36a1,1,0,0,0-2,0V55A16.163,16.163,0,0,0,16.068,53.5L12.35,54.983A14.156,14.156,0,0,1,7.068,56H4V45a1,1,0,0,0-2,0V61a1,1,0,0,0,1,1,1.014,1.014,0,0,0,.11-.006l10.461-1.161a50.71,50.71,0,0,1,14.723.513A4.222,4.222,0,0,0,29,61.41a3.979,3.979,0,0,0,3-1.378,3.989,3.989,0,0,0,3.722,1.312,50.643,50.643,0,0,1,14.711-.51l10.46,1.16A1.046,1.046,0,0,0,61,62a1,1,0,0,0,.109-1.994l-10.459-1.16a52.693,52.693,0,0,0-15.277.528,2.024,2.024,0,0,1-2.367-1.9A14.177,14.177,0,0,1,47.189,55.352ZM29,59.41a2.169,2.169,0,0,1-.361-.034,52.648,52.648,0,0,0-15.289-.53L4,59.883V58H7.068a16.167,16.167,0,0,0,6.025-1.16l3.719-1.487a14.166,14.166,0,0,1,14.181,2.122A2,2,0,0,1,29,59.41Z"/><path d="M46,50a10.945,10.945,0,0,0,9.833-6.087,1,1,0,0,0-1.789-.895,9.055,9.055,0,0,1-2.089,2.708c0-.014,0-.029-.007-.042l-1.815-5.448,4.476-3.444a.972.972,0,0,0,.083-.087A8.962,8.962,0,0,1,55,39c0,.125-.009.249-.018.372l-.01.17a1,1,0,1,0,2,.117l.01-.152c.011-.168.022-.336.022-.507A11,11,0,1,0,46,50Zm4.391-3.208c.013.011.03.014.044.024a8.917,8.917,0,0,1-8.875,0c.016-.011.034-.015.049-.027L46,43.416Zm-7.855-8.564L40.94,37h2.006ZM46.946,37l.839,2.519L46,40.892l-1.785-1.373L45.054,37Zm-1.225-2L46,34.162l.279.838Zm2.734,6.527.562,1.686L47.64,42.154Zm-4.095.627-1.377,1.059.562-1.686Zm5.1-3.926L49.054,37H51.06ZM46,30a9,9,0,0,1,8.055,5.009c-.019,0-.036-.009-.055-.009H48.388l-1.44-4.316a1,1,0,0,0-1.9,0L43.612,35H38c-.019,0-.036.008-.055.009A9,9,0,0,1,46,30Zm-8.692,6.7a.972.972,0,0,0,.083.087l4.476,3.444-1.815,5.448c-.005.015,0,.03-.008.045a8.9,8.9,0,0,1-2.736-9.024Z"/><path d="M3,41a1,1,0,0,0,1-1V23H7.068a16.167,16.167,0,0,0,6.025-1.16l3.719-1.487A14.168,14.168,0,0,1,31,22.48V32a1,1,0,0,0,2,0V22.469a14.183,14.183,0,0,1,14.189-2.117l3.718,1.487A16.148,16.148,0,0,0,56.932,23a1,1,0,0,0,0-2,14.164,14.164,0,0,1-5.283-1.017L47.932,18.5A16.167,16.167,0,0,0,32,20.721,16.167,16.167,0,0,0,16.068,18.5L12.35,19.983A14.156,14.156,0,0,1,7.068,21H3a1,1,0,0,0-1,1V40A1,1,0,0,0,3,41Z"/><path d="M26.346,45.85a1,1,0,0,0,1.707,1.043,8.42,8.42,0,0,0,.725-1.452,8.6,8.6,0,0,0-.359-6.84L27,35.764V33a1,1,0,0,0-1-1H24.8l4.044-6.47a1,1,0,1,0-1.7-1.06l-4.488,7.18A2.967,2.967,0,0,0,18,30.78a2.95,2.95,0,0,0-3.116-.56A2.993,2.993,0,0,0,9,31a2.964,2.964,0,0,0,.3,1.287A.993.993,0,0,0,9,33v2.764L7.581,38.6A8.567,8.567,0,0,0,15.244,51h5.512a8.6,8.6,0,0,0,4-1,1,1,0,0,0-.935-1.769,6.494,6.494,0,0,1-3.06.772H15.244A6.567,6.567,0,0,1,9.37,39.5L10.9,36.447A1,1,0,0,0,11,36V34h2v3a3,3,0,0,0,3,3,2.966,2.966,0,0,0,1-.184V41a3,3,0,0,0,6,0V34h2v2a1,1,0,0,0,.105.447L26.63,39.5a6.586,6.586,0,0,1,.275,5.242A6.457,6.457,0,0,1,26.346,45.85ZM12,30a1,1,0,1,1-1,1A1,1,0,0,1,12,30Zm4,8a1,1,0,0,1-1-1V33a1,1,0,0,1,2,0v4A1,1,0,0,1,16,38Zm5,3a1,1,0,0,1-2,0V33a1,1,0,0,1,2,0Z"/><path d="M23,27a3,3,0,1,0-3,3A3,3,0,0,0,23,27Zm-3,1a1,1,0,1,1,1-1A1,1,0,0,1,20,28Z"/><circle cx="14" cy="25" r="1"/><circle cx="24" cy="23" r="1"/><path d="M57,26H53a1,1,0,0,0,0,2h4a1,1,0,0,0,0-2Z"/><path d="M54,53h3a1,1,0,0,0,0-2H54a1,1,0,0,0,0,2Z"/><path d="M57,48H56a1,1,0,0,0,0,2h1a1,1,0,0,0,0-2Z"/><path d="M36,50a1,1,0,0,0,0,2h1a1,1,0,0,0,0-2Z"/><path d="M39,27a1,1,0,0,0,0-2H36a1,1,0,0,0,0,2Z"/><path d="M7,53H9a1,1,0,0,0,0-2H7a1,1,0,0,0,0,2Z"/><path d="M7,27H9a1,1,0,0,0,0-2H7a1,1,0,0,0,0,2Z"/><path d="M32,18c3.4,0,7-3.084,7-6a14.774,14.774,0,0,0-2.168-7.555,1,1,0,0,0-1.525-.166c-.024.023-.4.382-.934.942-.8-1.513-1.475-2.667-1.511-2.728a1.04,1.04,0,0,0-1.724,0c-.036.061-.713,1.215-1.512,2.728-.537-.56-.909-.919-.933-.942a1,1,0,0,0-1.525.166A14.785,14.785,0,0,0,25,12C25,14.916,28.6,18,32,18Zm-2-4c0-.637.939-2.125,2-3.451,1.062,1.332,2,2.831,2,3.451a2,2,0,0,1-4,0ZM28.238,6.663c.264.276.566.6.882.95a1,1,0,0,0,1.638-.22c.431-.863.874-1.691,1.242-2.36.367.668.81,1.5,1.241,2.36a1,1,0,0,0,1.639.22c.315-.351.618-.674.882-.95A12.874,12.874,0,0,1,37,12a3.307,3.307,0,0,1-1.005,2.054c0-.018.005-.035.005-.054,0-1.941-2.712-5.062-3.256-5.668a1.031,1.031,0,0,0-1.488,0C30.712,8.938,28,12.059,28,14c0,.019,0,.036,0,.054A3.307,3.307,0,0,1,27,12,12.874,12.874,0,0,1,28.238,6.663Z"/><path d="M42,7a1,1,0,0,0,.707-.293l2-2a1,1,0,1,0-1.414-1.414l-2,2A1,1,0,0,0,42,7Z"/><path d="M41.03,10.243A1,1,0,0,0,42,11a.968.968,0,0,0,.243-.03l4-1a1,1,0,1,0-.484-1.94l-4,1A1,1,0,0,0,41.03,10.243Z"/><path d="M42,15h3a1,1,0,0,0,0-2H42a1,1,0,0,0,0,2Z"/><path d="M21.293,6.707a1,1,0,0,0,1.414-1.414l-2-2a1,1,0,0,0-1.414,1.414Z"/><path d="M17.757,9.97l4,1A.976.976,0,0,0,22,11a1,1,0,0,0,.242-1.97l-4-1a1,1,0,0,0-.486,1.94Z"/><path d="M22,13H19a1,1,0,0,0,0,2h3a1,1,0,0,0,0-2Z"/></g><text x="0" y="79" fill="#000000" font-size="5px" font-weight="bold" font-family="'Helvetica Neue', Helvetica, Arial-Unicode, Arial, Sans-serif"></text><text x="0" y="84" fill="#000000" font-size="5px" font-weight="bold" font-family="'Helvetica Neue', Helvetica, Arial-Unicode, Arial, Sans-serif"></text></svg>